<?xml version="1.0" encoding="UTF-8" standalone="no"?>
<!DOCTYPE svg PUBLIC "-//W3C//DTD SVG 1.1//EN" "http://www.w3.org/Graphics/SVG/1.1/DTD/svg11.dtd">
<svg width="100%" height="100%" viewBox="0 0 2748 2748" version="1.1" xmlns="http://www.w3.org/2000/svg" xmlns:xlink="http://www.w3.org/1999/xlink" xml:space="preserve" xmlns:serif="http://www.serif.com/" style="fill-rule:evenodd;clip-rule:evenodd;stroke-linecap:round;stroke-linejoin:round;stroke-miterlimit:1.5;">
    <rect x="0" y="0" width="2748" height="2748" style="fill:rgb(243,243,243);"/>
    <g transform="matrix(1.08583,0,0,1.08583,88.5683,-303.839)">
        <g id="body" transform="matrix(0.647275,0,0,0.928959,165.981,154.961)">
            <g transform="matrix(1.54494,0,0,1.07647,-171.767,348.874)">
                <path d="M754.76,1474.64C754.76,1474.64 919.194,1719.76 887.659,2126.55C856.124,2533.33 1542.34,2236.72 1546.75,1899.15C1551.17,1561.58 1637.64,971.516 1468.25,1101.96C1298.86,1232.41 1042.36,1596.05 754.76,1474.64Z" style="fill:white;"/>
            </g>
            <path d="M1114.84,2201.36C1108.9,2287.19 1127.06,2340.7 1254.68,2435.54C1314.9,2480.29 1475.83,2526.43 1725.65,2526.43C1973.92,2526.43 2027.73,2405.17 2027.73,2405.17L2071.28,2295.27L2819.13,2370.62C2847.46,2383.15 3027.1,2447.66 3147.33,2670.13C3267.26,2892.03 3200.34,2935.73 3284.59,3284.19L-139.581,3190.14C-129.043,2974.18 -161.072,2621.69 57.613,2439.32C254.224,2275.35 473.007,2162.22 706.542,2157.76L1114.84,2201.36Z"/>
            <path d="M1146.99,2202.44C1141.46,2282.36 1159.34,2331.9 1278.16,2420.2C1335.26,2462.63 1488.78,2504 1725.65,2504C1941.72,2504 1994.54,2403.43 1996.9,2398.71L2040.26,2289.3C2044.57,2278.41 2059.84,2271.45 2075.89,2273.07L2823.73,2348.42C2828.23,2348.87 2832.54,2349.98 2836.38,2351.68C2865.78,2364.69 3052.68,2431.37 3177.45,2662.22C3298.21,2885.67 3231.49,2929.59 3316.33,3280.46C3317.94,3287.12 3315.15,3293.93 3308.75,3299C3302.35,3304.08 3293,3306.86 3283.32,3306.6L-140.849,3212.54C-158.543,3212.06 -172.351,3201.7 -171.749,3189.37C-165.386,3058.98 -174.246,2879.14 -134.977,2716.47C-107.953,2604.54 -57.95,2500.71 32.913,2424.94C236.294,2255.33 464.085,2139.95 705.661,2135.35C707.587,2135.31 709.513,2135.39 711.417,2135.6L1119.71,2179.2C1136.01,2180.94 1147.78,2190.97 1146.99,2202.44ZM1081.71,2220.51C994.729,2211.23 734.944,2183.48 704.57,2180.24C480.157,2185.42 271.356,2296.04 82.313,2453.69C-1.772,2523.82 -46.489,2620.33 -71.496,2723.91C-108.081,2875.45 -102.011,3042.11 -106.484,3168.6L3246.43,3260.7C3172.65,2939.41 3233.11,2892.49 3117.21,2678.03C3008.17,2476.28 2848.81,2409.3 2807.99,2392.15C2736.12,2384.91 2094.76,2320.29 2094.76,2320.29L2058.75,2411.14C2058.66,2411.36 2058.57,2411.58 2058.48,2411.8C2058.48,2411.8 2000.97,2548.86 1725.65,2548.86C1462.87,2548.86 1294.54,2497.95 1231.21,2450.88C1105.09,2357.16 1079.8,2300.96 1081.71,2220.51Z"/>
        </g>
        <g id="SHADOW" opacity="0.25">
            <g transform="matrix(1,0,0,1,-34.3773,-202.321)">
                <path d="M1466.58,2692.7C2047.1,3107.78 948.881,2657.75 948.881,2657.75C948.881,2657.75 609.273,1860.65 860.861,1978.35C1262.91,2685.62 1010.69,2366.73 1466.58,2692.7Z"/>
            </g>
            <path d="M1006.07,2188.11C1091.68,2177.92 1432.32,1926.92 1441.63,1705.67C1444.16,1645.65 1405.79,1813.88 1293.51,1875.59C1145.79,1956.77 635.545,1817.83 635.545,1817.83C635.545,1817.83 777.034,2215.37 1006.07,2188.11Z"/>
        </g>
        <g id="hair-left">
            <g>
                <path id="front" d="M569.291,1399.6C552.633,1607.12 458.767,1486.19 501.884,1966.38C504.548,1996.04 553.16,1420.22 672.606,1534.36C568.728,1679.74 508.386,2224.34 665.227,2381.68C663.178,2338.33 680.602,2267.96 711.447,2243.88C755.614,2281.65 752.562,2499.2 741.785,2544.96C731.008,2590.72 845.377,2502.83 834.606,2375.69C823.033,2239.08 859.332,2587.97 796.048,2639.65C732.763,2691.34 1104.13,2638.64 856.018,2066.72C683.725,1669.58 582.392,1236.39 569.291,1399.6Z" style="fill:rgb(97,97,97);stroke:black;stroke-width:41.67px;"/>
            </g>
            <g transform="matrix(0.482668,-0.0281377,-0.0243896,-0.418374,-83.9027,2976.94)">
                <path d="M1781.01,1407.94C1781.01,1407.94 1822.93,1748.95 1653.99,2017.22" style="fill:none;stroke:black;stroke-width:92.09px;"/>
            </g>
        </g>
        <g id="HEAD">
            <path id="base" d="M1434.26,1661.43C1561.55,1536.88 1606.87,1356.27 1601.06,1185.25C1597.98,1094.56 1580.52,1006.56 1553.28,931.051C1537.51,887.327 1518.45,847.788 1497.01,814.335C1470.4,772.81 1440.1,740.662 1407.84,721.528C809.166,366.493 595.102,893.675 595.102,893.675C568.526,985.337 539.408,1008.84 537.882,1162.24C537.494,1201.2 484.79,1220.38 541.095,1297.04C598.142,1374.71 530.195,1505.9 590.337,1698.16C598.276,1723.54 611.111,1748.88 621.432,1777.51C662.732,1892.08 747.227,1938.49 757.516,1977.62C766.468,2011.66 873.295,2095.56 1006.37,2026.76C1086.55,1973.29 1109.87,1974.4 1275.68,1884.23C1294.9,1873.78 1369.26,1833.34 1434.26,1661.43Z" style="fill:white;"/>
            <path id="courbe" d="M1514.55,803.093C1520.76,812.773 1517.93,825.67 1508.25,831.875C1498.57,838.079 1485.68,835.257 1479.47,825.577C1454.84,787.15 1427.07,757.154 1397.21,739.447C1165.65,602.121 993.863,599.695 870.756,648.135C695.629,717.045 620.655,886.762 614.779,900.616C588.837,989.452 560.203,1012.84 558.714,1162.45C558.565,1177.45 552.991,1190.36 546.345,1203.47C541.671,1212.69 536.016,1222.04 535.952,1234.47C535.884,1247.45 541.964,1263.03 557.886,1284.71C583.197,1319.17 587.67,1362.84 586.581,1416.84C585.143,1488.13 574.989,1579.32 610.22,1691.94C618.076,1717.06 630.818,1742.11 641.031,1770.44C668.751,1847.35 717.151,1891.95 746.849,1924.83C762.907,1942.6 773.93,1958.12 777.664,1972.32C779.625,1979.78 789.119,1989.54 802.53,1999.56C840.865,2028.18 912.578,2051.31 995.805,2008.76C1075.25,1956 1113.28,1956.06 1266.32,1851.43C1275.82,1844.94 1288.79,1847.38 1295.28,1856.87C1301.77,1866.37 1299.33,1879.34 1289.84,1885.83C1135.92,1991.05 1098.17,1990.58 1017.93,2044.09C1017.29,2044.52 1016.62,2044.91 1015.94,2045.26C913.281,2098.34 824.834,2068.22 777.599,2032.94C754.255,2015.51 740.78,1995.89 737.367,1982.91C733.861,1969.58 719.142,1956.1 701.809,1937.46C669.827,1903.08 627.798,1856.61 601.833,1784.57C591.405,1755.64 578.475,1730.03 570.453,1704.38C533.514,1586.3 543.415,1490.74 544.923,1416C545.797,1372.63 544.634,1337.05 524.305,1309.38C504.439,1282.33 496.701,1261.1 494.789,1243.77C492.682,1224.66 497.333,1209.5 503.723,1195.69C509.024,1184.24 516.924,1174.61 517.049,1162.03C518.607,1005.48 547.971,981.419 575.092,887.874C575.292,887.184 575.528,886.504 575.799,885.837C575.799,885.837 656.215,687.778 855.5,609.362C987.012,557.614 1171.09,556.905 1418.46,703.608C1453.14,724.171 1485.95,758.469 1514.55,803.093Z"/>
        </g>
        <g id="cap-back" transform="matrix(1,0,0,1,0,74.6058)">
            <path d="M1602.27,1049.32L1693.18,1381.61L1601.55,1046.7L1602.27,1049.32L1601.55,1048.33C1601.55,1048.33 2221.59,1338.53 1693.18,1381.61" style="stroke:black;stroke-width:58.33px;"/>
        </g>
        <g id="hair-right">
            <path d="M1277.14,784.281C1277.14,784.281 1284.44,971.291 1365.53,1251.64C1385.77,1321.61 1410.61,1397.39 1441.07,1477.53C1454.76,1513.52 1469.58,1550.39 1485.62,1588.01C1493.31,1606.03 1501.28,1624.22 1509.54,1642.56C1517.59,1660.44 1525.91,1678.47 1534.53,1696.63C1576.64,1785.41 1515.85,2090.9 1507.54,2160.32C1499.23,2229.74 1445.11,2307.55 1458.57,2439.64C1462.22,2475.5 1593.77,2829.16 1859.73,2711.3C1658.23,2532.89 1734.77,2371.71 1730.81,2401.88C1721.83,2470.3 1685.93,2706.82 2054.51,2689.39C1913.03,2560.7 1941.25,2479.68 1943.09,2478.5C1991.52,2499.03 2058.61,2435.95 2038.45,2403.3C2007.66,2392.52 1928.05,2423.55 1997.88,2163.77C2038.02,2014.41 1957.52,1794.28 1860.2,1719.17C1723.07,1613.34 1879.55,1535.49 1709.23,1343.63C1550.28,1164.59 1675.08,846.944 1356.25,683.716C1258.16,633.5 850.838,447.884 604.67,856.65C590.058,880.912 844.63,694.449 1277.14,784.281Z" style="fill:rgb(97,97,97);stroke:black;stroke-width:41.67px;"/>
            <g transform="matrix(-0.421917,0.236107,0.320146,0.572092,2058.46,691.427)">
                <path d="M1603.18,1612.2C1603.18,1612.2 1587.29,1672.46 1723.81,1856.05C1983.59,2205.39 1795.7,2238.79 1795.7,2238.79" style="fill:none;stroke:black;stroke-width:72.34px;"/>
            </g>
            <g transform="matrix(-0.492078,0.180884,-0.22305,-0.606787,3162.55,3126.24)">
                <path d="M1756.91,1591.22C2065.53,1763.94 1784.73,2232.3 1784.73,2232.3" style="fill:none;stroke:black;stroke-width:70.79px;"/>
            </g>
            <g transform="matrix(0.954518,0.202653,-0.235194,1.10779,344.387,-493.352)">
                <path d="M1380.1,1101.06C1380.1,1101.06 1544.55,1203.62 1665.39,1212.61C1742.99,1218.39 1537.68,1159.5 1343.17,957.561" style="fill:none;stroke:black;stroke-width:39.42px;"/>
            </g>
        </g>
        <g id="ear">
            <path d="M1592.49,1394.52C1592.49,1394.52 1649.09,1499.04 1648.01,1365.22C1646.92,1231.4 1648.53,1176.08 1577.02,1227.37C1505.51,1278.66 1592.49,1394.52 1592.49,1394.52Z" style="fill:white;"/>
            <path d="M1620.64,1436.11C1685.97,1199.98 1639.65,1207.29 1588.07,1215.38" style="fill:none;stroke:black;stroke-width:41.67px;"/>
        </g>
        <g id="hair-right-front" transform="matrix(0.82218,0,0,0.87044,303.486,1.40046)">
            <path d="M1491.21,1430.81C1491.21,1430.81 1531.46,1566.63 1723.81,1856.05C1836.38,2025.42 1784.73,2232.3 1784.73,2232.3" style="fill:none;stroke:black;stroke-width:49.21px;"/>
        </g>
        <g id="cap-front">
            <path d="M895.907,837.2C1088.47,818.683 1287.95,777.992 1603.77,1081.75C1657.62,1172.91 1698.4,917.632 1627.64,810.703C1549.66,692.855 1282.37,508.218 1151.5,508.218C1020.63,508.218 784.182,564.977 693.652,659.477C572.157,786.297 583.579,913.232 583.579,913.232C583.579,913.232 590.174,891.635 605.05,888.014C608.988,827.746 665.959,811.812 724.646,799.478C777.675,788.334 894.433,766.604 895.907,837.2Z" style="stroke:black;stroke-width:58.33px;"/>
            <g transform="matrix(0.700938,0,0,0.520517,190.404,615.883)">
                <path d="M1041.34,603.007C1057.88,590.512 898.428,133.824 778.446,177.316C629.584,231.276 582.995,715.007 619.197,727.379C655.399,739.75 1024.8,615.502 1041.34,603.007Z" style="fill:white;"/>
                <g>
                    <clipPath id="_clip1">
                        <path d="M1041.34,603.007C1057.88,590.512 898.428,133.824 778.446,177.316C629.584,231.276 582.995,715.007 619.197,727.379C655.399,739.75 1024.8,615.502 1041.34,603.007Z"/>
                    </clipPath>
                    <g clip-path="url(#_clip1)">
                        <g transform="matrix(1.20367,0,0,0.537645,-172.775,36.9381)">
                            <path d="M1041.34,603.007C1057.88,590.512 898.428,133.824 778.446,177.316C629.584,231.276 582.995,715.007 619.197,727.379C655.399,739.75 1024.8,615.502 1041.34,603.007Z" style="fill:rgb(97,97,97);"/>
                        </g>
                    </g>
                </g>
            </g>
            <g transform="matrix(1.26324,0,0,0.594719,-197.318,367.833)">
                <clipPath id="_clip2">
                    <ellipse cx="777.398" cy="795.46" rx="160.587" ry="225.113"/>
                </clipPath>
                <g clip-path="url(#_clip2)">
                    <g transform="matrix(0.791615,0,0,1.68147,156.2,-618.5)">
                        <path d="M1058.34,798.232C815.465,796.07 698.658,841.665 585.46,879.665" style="fill:none;stroke:black;stroke-width:87.5px;"/>
                    </g>
                </g>
            </g>
            <g transform="matrix(0.727589,0,0,0.727589,614.544,383.182)">
                <path d="M461.998,527.57C466.979,533.913 478.287,566.713 479.276,580.909" style="fill:none;stroke:rgb(192,192,192);stroke-width:57.27px;"/>
            </g>
        </g>
        <g id="eyebrows" transform="matrix(0.487816,0,0,1,442.165,4.86658)">
            <ellipse cx="370.031" cy="1163.04" rx="169.807" ry="130.782" style="fill:none;"/>
            <g>
                <clipPath id="_clip3">
                    <ellipse cx="370.031" cy="1163.04" rx="169.807" ry="130.782"/>
                </clipPath>
                <g clip-path="url(#_clip3)">
                    <g transform="matrix(-1.94795,0.311516,0.638595,0.950241,1352.24,-165.97)">
                        <path d="M846.6,1157.74C846.6,1157.74 934.214,1077.59 1085.38,1143.47C1146.26,1170 1011.85,1056.05 846.6,1121.66C812.951,1135.02 846.6,1157.74 846.6,1157.74Z" style="stroke:black;stroke-width:20.83px;"/>
                    </g>
                </g>
            </g>
            <g transform="matrix(2.04995,0,0,1,-906.418,-4.86658)">
                <path d="M846.6,1157.74C846.6,1157.74 934.214,1077.59 1085.38,1143.47C1146.26,1170 1011.85,1056.05 846.6,1121.66C812.951,1135.02 846.6,1157.74 846.6,1157.74Z" style="stroke:black;stroke-width:20.83px;"/>
            </g>
        </g>
        <g id="nose">
            <path d="M711.447,1291.78C711.447,1291.78 700.834,1321.28 681.564,1414.06C671.046,1464.71 562.992,1537.89 711.447,1597.07" style="fill:none;stroke:black;stroke-width:41.67px;"/>
        </g>
        <g id="mouth" transform="matrix(0.920954,0,0,0.920954,54.7998,138.798)">
            <g id="mouth1" serif:id="mouth">
                <path id="mouth2" serif:id="mouth" d="M693.266,1772.29C693.324,1770.92 693.576,1769.55 694.03,1768.22C694.167,1767.82 694.321,1767.43 694.49,1767.04C694.934,1765.63 703.739,1737.97 716.79,1719.27C728.52,1702.46 745.005,1689.07 765.923,1687.89C844.746,1683.47 847.656,1673.34 897.67,1699.45C901.371,1701.39 904.525,1704.32 908.34,1706.01C921.405,1711.83 967.009,1723.84 985.317,1728.36C986.559,1728.38 987.802,1728.55 989.014,1728.89C992.856,1729.95 994.844,1730.62 995.34,1730.82L998.38,1732.5L1002.21,1736.55L1004.33,1742.28L1003.84,1748.63L1000.84,1754.01L998.355,1756.24L995.412,1757.87L990.498,1758.94L985.288,1758.34C984.497,1758.16 983.408,1757.9 982.064,1757.58C949.588,1764.08 895.227,1793.41 845.975,1810.38C807.49,1823.63 771.634,1828.63 748.468,1816.46C716.377,1799.59 704.747,1789.3 701.568,1786.1C700.819,1785.75 700.107,1785.33 699.438,1784.86C697.374,1783.4 695.793,1781.5 694.746,1779.36C693.694,1777.23 693.153,1774.81 693.266,1772.29ZM981.394,1757.42C981.327,1757.4 981.26,1757.38 981.192,1757.37L980.587,1757.33C980.856,1757.38 981.125,1757.4 981.394,1757.42Z" style="fill:rgb(254,209,208);"/>
            </g>
        </g>
        <g id="eyes" transform="matrix(-55.4328,-0.949053,-0.949053,55.4328,2448.89,186.11)">
            <path d="M27.26,20.094C27.043,20.53 26.587,20.746 26.24,20.574C25.895,20.403 25.79,19.91 26.007,19.473C26.223,19.036 26.679,18.821 27.025,18.993C27.371,19.163 27.475,19.657 27.259,20.093L27.26,20.094ZM33.33,21.115C33.114,21.552 32.701,21.789 32.409,21.645C32.117,21.499 32.055,21.028 32.272,20.591C32.488,20.154 32.901,19.917 33.193,20.062C33.485,20.207 33.547,20.678 33.33,21.115Z" style="fill-rule:nonzero;"/>
        </g>
    </g>
</svg>
