<svg id="visual" viewBox="0 0 900 600" width="900" height="600" xmlns="http://www.w3.org/2000/svg" xmlns:xlink="http://www.w3.org/1999/xlink" version="1.1"><path d="M0 67L18.8 66C37.7 65 75.3 63 112.8 64C150.3 65 187.7 69 225.2 74C262.7 79 300.3 85 337.8 81C375.3 77 412.7 63 450.2 63C487.7 63 525.3 77 562.8 85C600.3 93 637.7 95 675.2 86C712.7 77 750.3 57 787.8 43C825.3 29 862.7 21 881.3 17L900 13L900 0L881.3 0C862.7 0 825.3 0 787.8 0C750.3 0 712.7 0 675.2 0C637.7 0 600.3 0 562.8 0C525.3 0 487.7 0 450.2 0C412.7 0 375.3 0 337.8 0C300.3 0 262.7 0 225.2 0C187.7 0 150.3 0 112.8 0C75.3 0 37.7 0 18.8 0L0 0Z" fill="#999999"></path><path d="M0 79L18.8 86C37.7 93 75.3 107 112.8 114C150.3 121 187.7 121 225.2 124C262.7 127 300.3 133 337.8 128C375.3 123 412.7 107 450.2 108C487.7 109 525.3 127 562.8 132C600.3 137 637.7 129 675.2 114C712.7 99 750.3 77 787.8 68C825.3 59 862.7 63 881.3 65L900 67L900 11L881.3 15C862.7 19 825.3 27 787.8 41C750.3 55 712.7 75 675.2 84C637.7 93 600.3 91 562.8 83C525.3 75 487.7 61 450.2 61C412.7 61 375.3 75 337.8 79C300.3 83 262.7 77 225.2 72C187.7 67 150.3 63 112.8 62C75.3 61 37.7 63 18.8 64L0 65Z" fill="#adadad"></path><path d="M0 133L18.8 142C37.7 151 75.3 169 112.8 175C150.3 181 187.7 175 225.2 176C262.7 177 300.3 185 337.8 174C375.3 163 412.7 133 450.2 135C487.7 137 525.3 171 562.8 178C600.3 185 637.7 165 675.2 148C712.7 131 750.3 117 787.8 115C825.3 113 862.7 123 881.3 128L900 133L900 65L881.3 63C862.7 61 825.3 57 787.8 66C750.3 75 712.7 97 675.2 112C637.7 127 600.3 135 562.8 130C525.3 125 487.7 107 450.2 106C412.7 105 375.3 121 337.8 126C300.3 131 262.7 125 225.2 122C187.7 119 150.3 119 112.8 112C75.3 105 37.7 91 18.8 84L0 77Z" fill="#bebebe"></path><path d="M0 331L18.8 316C37.7 301 75.3 271 112.8 251C150.3 231 187.7 221 225.2 234C262.7 247 300.3 283 337.8 286C375.3 289 412.7 259 450.2 248C487.7 237 525.3 245 562.8 266C600.3 287 637.7 321 675.2 305C712.7 289 750.3 223 787.8 191C825.3 159 862.7 161 881.3 162L900 163L900 131L881.3 126C862.7 121 825.3 111 787.8 113C750.3 115 712.7 129 675.2 146C637.7 163 600.3 183 562.8 176C525.3 169 487.7 135 450.2 133C412.7 131 375.3 161 337.8 172C300.3 183 262.7 175 225.2 174C187.7 173 150.3 179 112.8 173C75.3 167 37.7 149 18.8 140L0 131Z" fill="#cbcbcb"></path><path d="M0 421L18.8 426C37.7 431 75.3 441 112.8 435C150.3 429 187.7 407 225.2 393C262.7 379 300.3 373 337.8 363C375.3 353 412.7 339 450.2 353C487.7 367 525.3 409 562.8 430C600.3 451 637.7 451 675.2 439C712.7 427 750.3 403 787.8 385C825.3 367 862.7 355 881.3 349L900 343L900 161L881.3 160C862.7 159 825.3 157 787.8 189C750.3 221 712.7 287 675.2 303C637.7 319 600.3 285 562.8 264C525.3 243 487.7 235 450.2 246C412.7 257 375.3 287 337.8 284C300.3 281 262.7 245 225.2 232C187.7 219 150.3 229 112.8 249C75.3 269 37.7 299 18.8 314L0 329Z" fill="#cecece"></path><path d="M0 439L18.8 448C37.7 457 75.3 475 112.8 478C150.3 481 187.7 469 225.2 464C262.7 459 300.3 461 337.8 453C375.3 445 412.7 427 450.2 436C487.7 445 525.3 481 562.8 493C600.3 505 637.7 493 675.2 483C712.7 473 750.3 465 787.8 453C825.3 441 862.7 425 881.3 417L900 409L900 341L881.3 347C862.7 353 825.3 365 787.8 383C750.3 401 712.7 425 675.2 437C637.7 449 600.3 449 562.8 428C525.3 407 487.7 365 450.2 351C412.7 337 375.3 351 337.8 361C300.3 371 262.7 377 225.2 391C187.7 405 150.3 427 112.8 433C75.3 439 37.7 429 18.8 424L0 419Z" fill="#cbcbcb"></path><path d="M0 487L18.8 494C37.7 501 75.3 515 112.8 518C150.3 521 187.7 513 225.2 519C262.7 525 300.3 545 337.8 553C375.3 561 412.7 557 450.2 559C487.7 561 525.3 569 562.8 569C600.3 569 637.7 561 675.2 556C712.7 551 750.3 549 787.8 547C825.3 545 862.7 543 881.3 542L900 541L900 407L881.3 415C862.7 423 825.3 439 787.8 451C750.3 463 712.7 471 675.2 481C637.7 491 600.3 503 562.8 491C525.3 479 487.7 443 450.2 434C412.7 425 375.3 443 337.8 451C300.3 459 262.7 457 225.2 462C187.7 467 150.3 479 112.8 476C75.3 473 37.7 455 18.8 446L0 437Z" fill="#bebebe"></path><path d="M0 553L18.8 554C37.7 555 75.3 557 112.8 556C150.3 555 187.7 551 225.2 554C262.7 557 300.3 567 337.8 574C375.3 581 412.7 585 450.2 587C487.7 589 525.3 589 562.8 588C600.3 587 637.7 585 675.2 584C712.7 583 750.3 583 787.8 580C825.3 577 862.7 571 881.3 568L900 565L900 539L881.3 540C862.7 541 825.3 543 787.8 545C750.3 547 712.7 549 675.2 554C637.7 559 600.3 567 562.8 567C525.3 567 487.7 559 450.2 557C412.7 555 375.3 559 337.8 551C300.3 543 262.7 523 225.2 517C187.7 511 150.3 519 112.8 516C75.3 513 37.7 499 18.8 492L0 485Z" fill="#adadad"></path><path d="M0 601L18.8 601C37.7 601 75.3 601 112.8 601C150.3 601 187.7 601 225.2 601C262.7 601 300.3 601 337.8 601C375.3 601 412.7 601 450.2 601C487.7 601 525.3 601 562.8 601C600.3 601 637.7 601 675.2 601C712.7 601 750.3 601 787.8 601C825.3 601 862.7 601 881.3 601L900 601L900 563L881.3 566C862.7 569 825.3 575 787.8 578C750.3 581 712.7 581 675.2 582C637.7 583 600.3 585 562.8 586C525.3 587 487.7 587 450.2 585C412.7 583 375.3 579 337.8 572C300.3 565 262.7 555 225.2 552C187.7 549 150.3 553 112.8 554C75.3 555 37.7 553 18.8 552L0 551Z" fill="#999999"></path></svg>